<svg width="17" height="17" viewBox="0 0 17 17" fill="none" xmlns="http://www.w3.org/2000/svg">
<g clip-path="url(#clip0_716_2427)">
<path d="M14.4318 2.15182C13.0318 0.745149 11.1518 0.918482 8.33177 0.918482C5.69177 0.918482 3.66511 0.711816 2.23177 2.15182C0.825105 3.55182 0.998439 5.43182 0.998439 8.25182C0.998439 10.8851 0.791772 12.9185 2.23177 14.3518C3.63177 15.7585 5.51177 15.5851 8.33177 15.5851C10.9718 15.5851 12.9984 15.7918 14.4318 14.3518C15.8318 12.9518 15.6651 11.0718 15.6651 8.25182C15.6651 5.37848 15.8251 3.53848 14.4318 2.15182ZM13.4984 13.4185C12.5851 14.3318 11.3784 14.2652 8.33177 14.2652C5.47177 14.2652 4.10511 14.3651 3.16511 13.4185C2.20511 12.4585 2.31844 11.0785 2.31844 8.25182C2.31844 5.43182 2.21844 4.03182 3.16511 3.08515C4.10511 2.14515 5.39844 2.23848 8.33177 2.23848C11.1518 2.23848 12.5518 2.13848 13.4984 3.08515C14.4184 4.00515 14.3451 5.23182 14.3451 8.25182C14.3451 11.0785 14.4451 12.4785 13.4984 13.4185Z" fill="white"/>
<path d="M8.33179 4.48516C7.33272 4.48525 6.3746 4.88222 5.66822 5.58873C4.96183 6.29524 4.56504 7.25343 4.56512 8.2525C4.56521 9.25157 4.96218 10.2097 5.66869 10.9161C6.3752 11.6225 7.33339 12.0193 8.33246 12.0192C9.33153 12.0191 10.2896 11.6221 10.996 10.9156C11.7024 10.2091 12.0992 9.2509 12.0991 8.25183C12.099 7.25276 11.7021 6.29464 10.9956 5.58826C10.289 4.88187 9.33086 4.48507 8.33179 4.48516ZM8.33179 10.6985C6.98512 10.6985 5.88512 9.60516 5.88512 8.25183C5.88512 6.8985 6.97846 5.80516 8.33179 5.80516C9.68512 5.80516 10.7785 6.8985 10.7785 8.25183C10.7785 9.5985 9.67846 10.6985 8.33179 10.6985ZM12.2451 3.4585C11.7585 3.4585 11.3651 3.85183 11.3651 4.3385C11.3651 4.82516 11.7585 5.2185 12.2451 5.2185C12.7318 5.2185 13.1251 4.82516 13.1251 4.3385C13.1251 3.85183 12.7318 3.4585 12.2451 3.4585Z" fill="white"/>
</g>
<defs>
<clipPath id="clip0_716_2427">
<rect width="16" height="16" fill="white" transform="translate(0.331787 0.251953)"/>
</clipPath>
</defs>
</svg>
