<svg width="158" height="35" viewBox="0 0 158 35" fill="none" xmlns="http://www.w3.org/2000/svg">
<g filter="url(#filter0_d_534_993)">
<path d="M2.56836 29.1058V0.468506H24.6527C32.6524 0.468506 37.4607 5.87257 37.4607 14.8084C37.4607 23.7443 32.6524 29.1058 24.6527 29.1058H2.56836ZM23.6314 4.89388H7.4618V24.6804H23.6314C29.2057 24.6804 32.695 20.8933 32.695 14.8084C32.695 8.72353 29.2057 4.89388 23.6314 4.89388Z" fill="#F4F4F4"/>
<path d="M42.1281 29.1058V0.468506H75.3184V4.89388H47.0216V9.27671H74.8929V13.7021H47.0216V24.6804H75.3184V29.1058H42.1281Z" fill="#F4F4F4"/>
<path d="M79.9842 29.5313V0.468506H108.536C112.494 0.468506 114.877 2.9365 114.877 7.06402C114.877 11.1915 112.494 13.7021 108.536 13.7021H84.8776V29.5313H79.9842ZM107.26 4.89388H84.8776V9.27671H107.26C109.132 9.27671 110.111 8.59588 110.111 7.06402C110.111 5.53216 109.09 4.89388 107.26 4.89388Z" fill="#F4F4F4"/>
<path d="M118.541 17.3832V14.1579H121.24V7.73835H124.806V14.1579H131.256V17.3832H124.806V22.9344C124.806 24.4229 125.457 25.3843 127.38 25.3843H131.567V28.6096H127.039C122.728 28.6096 121.24 26.4077 121.24 23.0584V17.3832H118.541Z" fill="#F4F4F4"/>
<path d="M141.724 17.3832C139.801 17.3832 138.53 18.3445 138.53 19.8331V28.6096H134.963V7.73835H138.53V15.2743C139.274 14.5921 140.297 14.1579 141.507 14.1579H149.632C153.943 14.1579 155.431 16.3598 155.431 19.7091V28.6096H151.865V19.8331C151.865 18.3445 151.214 17.3832 149.291 17.3832H141.724Z" fill="#F4F4F4"/>
</g>
<defs>
<filter id="filter0_d_534_993" x="0.0286207" y="0.468506" width="157.943" height="34.1422" filterUnits="userSpaceOnUse" color-interpolation-filters="sRGB">
<feFlood flood-opacity="0" result="BackgroundImageFix"/>
<feColorMatrix in="SourceAlpha" type="matrix" values="0 0 0 0 0 0 0 0 0 0 0 0 0 0 0 0 0 0 127 0" result="hardAlpha"/>
<feOffset dy="2.53974"/>
<feGaussianBlur stdDeviation="1.26987"/>
<feComposite in2="hardAlpha" operator="out"/>
<feColorMatrix type="matrix" values="0 0 0 0 0 0 0 0 0 0 0 0 0 0 0 0 0 0 0.25 0"/>
<feBlend mode="normal" in2="BackgroundImageFix" result="effect1_dropShadow_534_993"/>
<feBlend mode="normal" in="SourceGraphic" in2="effect1_dropShadow_534_993" result="shape"/>
</filter>
</defs>
</svg>
