<svg width="25" height="24" viewBox="0 0 25 24" fill="none" xmlns="http://www.w3.org/2000/svg">
<path d="M11.3614 17.032L16.3917 12.0017L11.3614 6.97138C11.0685 6.67849 10.5936 6.67849 10.3007 6.97138C10.0078 7.26427 10.0078 7.73915 10.3007 8.03204L14.2704 12.0017L10.3007 15.9714C10.0078 16.2643 10.0078 16.7391 10.3007 17.032C10.5936 17.3249 11.0685 17.3249 11.3614 17.032Z" fill="white"/>
<path fill-rule="evenodd" clip-rule="evenodd" d="M21.3311 12.0017C21.3311 16.9723 17.3016 21.0017 12.3311 21.0017C7.36049 21.0017 3.33105 16.9723 3.33105 12.0017C3.33105 7.03115 7.36049 3.00171 12.3311 3.00171C17.3016 3.00171 21.3311 7.03115 21.3311 12.0017ZM19.8311 12.0017C19.8311 16.1438 16.4732 19.5017 12.3311 19.5017C8.18892 19.5017 4.83105 16.1438 4.83105 12.0017C4.83105 7.85957 8.18892 4.50171 12.3311 4.50171C16.4732 4.50171 19.8311 7.85957 19.8311 12.0017Z" fill="white"/>
</svg>
